<svg width="370" height="48" viewBox="0 0 370 48" fill="none" xmlns="http://www.w3.org/2000/svg">
<rect width="60.8" height="48" rx="6.4" fill="#294250"/>
<rect x="6.40002" y="6.39999" width="9.6" height="9.6" fill="white"/>
<rect x="6.40002" y="19.2" width="9.6" height="9.6" fill="white"/>
<rect x="6.40002" y="32" width="9.6" height="9.6" fill="white"/>
<rect x="19.2" y="6.39999" width="9.6" height="9.6" fill="#70D18B"/>
<rect x="19.2" y="19.2" width="9.6" height="9.6" fill="white"/>
<rect x="19.2" y="32" width="9.6" height="9.6" fill="#70D18B"/>
<rect x="32" y="6.39999" width="9.6" height="9.6" fill="white"/>
<rect x="32" y="19.2" width="9.6" height="9.6" fill="#70D18B"/>
<rect x="32" y="32" width="9.6" height="9.6" fill="white"/>
<rect x="44.8" y="6.39999" width="9.6" height="9.6" fill="white"/>
<rect x="44.8" y="19.2" width="9.6" height="9.6" fill="white"/>
<rect x="44.8" y="32" width="9.6" height="9.6" fill="white"/>
<path d="M72.2 38V10.0727H79.7818V31.8909H91.0727V38H72.2ZM94.2466 38V17.0545H101.774V38H94.2466ZM98.0102 14.8727C96.992 14.8727 96.1193 14.5364 95.392 13.8636C94.6648 13.1909 94.3011 12.3818 94.3011 11.4364C94.3011 10.4909 94.6648 9.68182 95.392 9.00909C96.1193 8.33636 96.992 8 98.0102 8C99.0375 8 99.9102 8.33636 100.628 9.00909C101.356 9.68182 101.719 10.4909 101.719 11.4364C101.719 12.3818 101.356 13.1909 100.628 13.8636C99.9102 14.5364 99.0375 14.8727 98.0102 14.8727ZM126.718 17.0545L119.682 38H110.955L103.918 17.0545H111.827L115.209 30.9091H115.427L118.809 17.0545H126.718ZM138.258 38.3818C136.022 38.3818 134.094 37.9545 132.476 37.1C130.867 36.2364 129.626 35 128.753 33.3909C127.89 31.7727 127.458 29.8364 127.458 27.5818C127.458 25.4182 127.894 23.5273 128.767 21.9091C129.64 20.2909 130.872 19.0318 132.462 18.1318C134.053 17.2318 135.931 16.7818 138.094 16.7818C139.676 16.7818 141.108 17.0273 142.39 17.5182C143.672 18.0091 144.767 18.7227 145.676 19.6591C146.585 20.5864 147.285 21.7136 147.776 23.0409C148.267 24.3682 148.512 25.8636 148.512 27.5273V29.2727H129.803V25.1273H141.585C141.576 24.5273 141.422 24 141.122 23.5455C140.831 23.0818 140.435 22.7227 139.935 22.4682C139.444 22.2045 138.885 22.0727 138.258 22.0727C137.649 22.0727 137.09 22.2045 136.581 22.4682C136.072 22.7227 135.662 23.0773 135.353 23.5318C135.053 23.9864 134.894 24.5182 134.876 25.1273V29.6C134.876 30.2727 135.017 30.8727 135.299 31.4C135.581 31.9273 135.985 32.3409 136.512 32.6409C137.04 32.9409 137.676 33.0909 138.422 33.0909C138.94 33.0909 139.412 33.0182 139.84 32.8727C140.276 32.7273 140.649 32.5182 140.958 32.2455C141.267 31.9636 141.494 31.6273 141.64 31.2364H148.512C148.276 32.6909 147.717 33.9545 146.835 35.0273C145.953 36.0909 144.785 36.9182 143.331 37.5091C141.885 38.0909 140.194 38.3818 138.258 38.3818ZM166.53 18.8C166.457 17.8909 166.116 17.1818 165.507 16.6727C164.907 16.1636 163.993 15.9091 162.766 15.9091C161.984 15.9091 161.343 16.0045 160.843 16.1955C160.352 16.3773 159.989 16.6273 159.752 16.9455C159.516 17.2636 159.393 17.6273 159.384 18.0364C159.366 18.3727 159.425 18.6773 159.561 18.95C159.707 19.2136 159.934 19.4545 160.243 19.6727C160.552 19.8818 160.948 20.0727 161.43 20.2455C161.911 20.4182 162.484 20.5727 163.148 20.7091L165.439 21.2C166.984 21.5273 168.307 21.9591 169.407 22.4955C170.507 23.0318 171.407 23.6636 172.107 24.3909C172.807 25.1091 173.32 25.9182 173.648 26.8182C173.984 27.7182 174.157 28.7 174.166 29.7636C174.157 31.6 173.698 33.1545 172.789 34.4273C171.88 35.7 170.58 36.6682 168.889 37.3318C167.207 37.9955 165.184 38.3273 162.82 38.3273C160.393 38.3273 158.275 37.9682 156.466 37.25C154.666 36.5318 153.266 35.4273 152.266 33.9364C151.275 32.4364 150.775 30.5182 150.766 28.1818H157.966C158.011 29.0364 158.225 29.7545 158.607 30.3364C158.989 30.9182 159.525 31.3591 160.216 31.6591C160.916 31.9591 161.748 32.1091 162.711 32.1091C163.52 32.1091 164.198 32.0091 164.743 31.8091C165.289 31.6091 165.702 31.3318 165.984 30.9773C166.266 30.6227 166.411 30.2182 166.42 29.7636C166.411 29.3364 166.27 28.9636 165.998 28.6455C165.734 28.3182 165.298 28.0273 164.689 27.7727C164.08 27.5091 163.257 27.2636 162.22 27.0364L159.439 26.4364C156.966 25.9 155.016 25.0045 153.589 23.75C152.17 22.4864 151.466 20.7636 151.475 18.5818C151.466 16.8091 151.939 15.2591 152.893 13.9318C153.857 12.5955 155.189 11.5545 156.889 10.8091C158.598 10.0636 160.557 9.69091 162.766 9.69091C165.02 9.69091 166.97 10.0682 168.616 10.8227C170.261 11.5773 171.53 12.6409 172.42 14.0136C173.32 15.3773 173.775 16.9727 173.784 18.8H166.53ZM187.25 38.3818C184.977 38.3818 183.032 37.9318 181.414 37.0318C179.795 36.1227 178.555 34.8591 177.691 33.2409C176.827 31.6136 176.395 29.7273 176.395 27.5818C176.395 25.4364 176.827 23.5545 177.691 21.9364C178.555 20.3091 179.795 19.0455 181.414 18.1455C183.032 17.2364 184.977 16.7818 187.25 16.7818C189.305 16.7818 191.082 17.1545 192.582 17.9C194.091 18.6364 195.259 19.6818 196.086 21.0364C196.914 22.3818 197.332 23.9636 197.341 25.7818H190.359C190.259 24.6818 189.941 23.8455 189.405 23.2727C188.877 22.6909 188.195 22.4 187.359 22.4C186.705 22.4 186.132 22.5909 185.641 22.9727C185.15 23.3455 184.768 23.9136 184.495 24.6773C184.223 25.4318 184.086 26.3818 184.086 27.5273C184.086 28.6727 184.223 29.6273 184.495 30.3909C184.768 31.1455 185.15 31.7136 185.641 32.0955C186.132 32.4682 186.705 32.6545 187.359 32.6545C187.914 32.6545 188.405 32.5273 188.832 32.2727C189.259 32.0091 189.605 31.6273 189.868 31.1273C190.141 30.6182 190.305 30 190.359 29.2727H197.341C197.314 31.1182 196.891 32.7273 196.073 34.1C195.255 35.4636 194.095 36.5182 192.595 37.2636C191.105 38.0091 189.323 38.3818 187.25 38.3818ZM207.974 26.2182V38H200.447V10.0727H207.701V21.0364H207.919C208.392 19.7 209.178 18.6591 210.278 17.9136C211.378 17.1591 212.701 16.7818 214.247 16.7818C215.728 16.7818 217.015 17.1182 218.106 17.7909C219.206 18.4636 220.056 19.3909 220.656 20.5727C221.265 21.7545 221.565 23.1091 221.556 24.6364V38H214.028V26.2182C214.037 25.1818 213.778 24.3682 213.251 23.7773C212.733 23.1864 211.992 22.8909 211.028 22.8909C210.419 22.8909 209.883 23.0273 209.419 23.3C208.965 23.5636 208.61 23.9455 208.356 24.4455C208.11 24.9364 207.983 25.5273 207.974 26.2182ZM235.308 38.3818C233.072 38.3818 231.144 37.9545 229.526 37.1C227.917 36.2364 226.676 35 225.803 33.3909C224.94 31.7727 224.508 29.8364 224.508 27.5818C224.508 25.4182 224.944 23.5273 225.817 21.9091C226.69 20.2909 227.922 19.0318 229.513 18.1318C231.103 17.2318 232.981 16.7818 235.144 16.7818C236.726 16.7818 238.158 17.0273 239.44 17.5182C240.722 18.0091 241.817 18.7227 242.726 19.6591C243.635 20.5864 244.335 21.7136 244.826 23.0409C245.317 24.3682 245.563 25.8636 245.563 27.5273V29.2727H226.853V25.1273H238.635C238.626 24.5273 238.472 24 238.172 23.5455C237.881 23.0818 237.485 22.7227 236.985 22.4682C236.494 22.2045 235.935 22.0727 235.308 22.0727C234.699 22.0727 234.14 22.2045 233.631 22.4682C233.122 22.7227 232.713 23.0773 232.403 23.5318C232.103 23.9864 231.944 24.5182 231.926 25.1273V29.6C231.926 30.2727 232.067 30.8727 232.349 31.4C232.631 31.9273 233.035 32.3409 233.563 32.6409C234.09 32.9409 234.726 33.0909 235.472 33.0909C235.99 33.0909 236.463 33.0182 236.89 32.8727C237.326 32.7273 237.699 32.5182 238.008 32.2455C238.317 31.9636 238.544 31.6273 238.69 31.2364H245.563C245.326 32.6909 244.767 33.9545 243.885 35.0273C243.003 36.0909 241.835 36.9182 240.381 37.5091C238.935 38.0909 237.244 38.3818 235.308 38.3818ZM256.216 38.2727C254.725 38.2727 253.352 37.8818 252.098 37.1C250.852 36.3182 249.852 35.1318 249.098 33.5409C248.352 31.95 247.98 29.9455 247.98 27.5273C247.98 25 248.37 22.9455 249.152 21.3636C249.943 19.7818 250.961 18.6227 252.207 17.8864C253.461 17.15 254.78 16.7818 256.161 16.7818C257.198 16.7818 258.107 16.9636 258.889 17.3273C259.67 17.6818 260.325 18.1591 260.852 18.7591C261.38 19.35 261.78 20 262.052 20.7091H262.161V10.0727H269.689V38H262.216V34.5636H262.052C261.761 35.2727 261.343 35.9091 260.798 36.4727C260.261 37.0273 259.607 37.4682 258.834 37.7955C258.07 38.1136 257.198 38.2727 256.216 38.2727ZM258.998 32.4909C259.689 32.4909 260.28 32.2909 260.77 31.8909C261.27 31.4818 261.652 30.9091 261.916 30.1727C262.189 29.4273 262.325 28.5455 262.325 27.5273C262.325 26.4909 262.189 25.6045 261.916 24.8682C261.652 24.1227 261.27 23.5545 260.77 23.1636C260.28 22.7636 259.689 22.5636 258.998 22.5636C258.307 22.5636 257.716 22.7636 257.225 23.1636C256.743 23.5545 256.37 24.1227 256.107 24.8682C255.852 25.6045 255.725 26.4909 255.725 27.5273C255.725 28.5636 255.852 29.4545 256.107 30.2C256.37 30.9364 256.743 31.5045 257.225 31.9045C257.716 32.2955 258.307 32.4909 258.998 32.4909ZM286.966 28.8364V17.0545H294.493V38H287.348V34.0182H287.13C286.675 35.3545 285.88 36.4 284.743 37.1545C283.607 37.9 282.257 38.2727 280.693 38.2727C279.23 38.2727 277.948 37.9364 276.848 37.2636C275.757 36.5909 274.907 35.6636 274.298 34.4818C273.698 33.3 273.393 31.9455 273.384 30.4182V17.0545H280.911V28.8364C280.92 29.8727 281.184 30.6864 281.702 31.2773C282.23 31.8682 282.966 32.1636 283.911 32.1636C284.539 32.1636 285.08 32.0318 285.534 31.7682C285.998 31.4955 286.352 31.1136 286.598 30.6227C286.852 30.1227 286.975 29.5273 286.966 28.8364ZM305.849 10.0727V38H298.322V10.0727H305.849ZM309.684 38V17.0545H317.211V38H309.684ZM313.448 14.8727C312.43 14.8727 311.557 14.5364 310.83 13.8636C310.102 13.1909 309.739 12.3818 309.739 11.4364C309.739 10.4909 310.102 9.68182 310.83 9.00909C311.557 8.33636 312.43 8 313.448 8C314.475 8 315.348 8.33636 316.066 9.00909C316.793 9.68182 317.157 10.4909 317.157 11.4364C317.157 12.3818 316.793 13.1909 316.066 13.8636C315.348 14.5364 314.475 14.8727 313.448 14.8727ZM328.574 26.2182V38H321.047V17.0545H328.192V21.0364H328.41C328.865 19.7091 329.665 18.6682 330.81 17.9136C331.965 17.1591 333.31 16.7818 334.847 16.7818C336.328 16.7818 337.615 17.1227 338.706 17.8045C339.806 18.4773 340.656 19.4045 341.256 20.5864C341.865 21.7682 342.165 23.1182 342.156 24.6364V38H334.628V26.2182C334.637 25.1818 334.374 24.3682 333.837 23.7773C333.31 23.1864 332.574 22.8909 331.628 22.8909C331.01 22.8909 330.469 23.0273 330.006 23.3C329.551 23.5636 329.201 23.9455 328.956 24.4455C328.71 24.9364 328.583 25.5273 328.574 26.2182ZM355.962 46.2909C353.862 46.2909 352.062 45.9909 350.562 45.3909C349.072 44.8 347.912 43.9818 347.085 42.9364C346.267 41.9 345.808 40.7091 345.708 39.3636H352.962C353.035 39.8091 353.217 40.1682 353.508 40.4409C353.799 40.7136 354.172 40.9091 354.626 41.0273C355.09 41.1545 355.608 41.2182 356.181 41.2182C357.153 41.2182 357.958 40.9818 358.594 40.5091C359.24 40.0364 359.562 39.1818 359.562 37.9455V34.4H359.344C359.072 35.1091 358.653 35.7136 358.09 36.2136C357.526 36.7045 356.849 37.0818 356.058 37.3455C355.267 37.6 354.399 37.7273 353.453 37.7273C351.962 37.7273 350.59 37.3818 349.335 36.6909C348.09 36 347.09 34.9045 346.335 33.4045C345.59 31.9045 345.217 29.9455 345.217 27.5273C345.217 25 345.608 22.9455 346.39 21.3636C347.181 19.7818 348.199 18.6227 349.444 17.8864C350.699 17.15 352.017 16.7818 353.399 16.7818C354.435 16.7818 355.344 16.9636 356.126 17.3273C356.908 17.6818 357.562 18.1591 358.09 18.7591C358.617 19.35 359.017 20 359.29 20.7091H359.453V17.0545H366.981V37.9455C366.981 39.7182 366.522 41.2227 365.603 42.4591C364.694 43.7045 363.412 44.6545 361.758 45.3091C360.103 45.9636 358.172 46.2909 355.962 46.2909ZM356.235 32.3818C356.926 32.3818 357.517 32.1909 358.008 31.8091C358.508 31.4182 358.89 30.8636 359.153 30.1455C359.426 29.4182 359.562 28.5455 359.562 27.5273C359.562 26.4909 359.426 25.6045 359.153 24.8682C358.89 24.1227 358.508 23.5545 358.008 23.1636C357.517 22.7636 356.926 22.5636 356.235 22.5636C355.544 22.5636 354.953 22.7636 354.462 23.1636C353.981 23.5545 353.608 24.1227 353.344 24.8682C353.09 25.6045 352.962 26.4909 352.962 27.5273C352.962 28.5636 353.09 29.4455 353.344 30.1727C353.608 30.8909 353.981 31.4409 354.462 31.8227C354.953 32.1955 355.544 32.3818 356.235 32.3818Z" fill="#284250"/>
</svg>
